HIERARCHY
ROOT Hips
{
	OFFSET -3.958830 18.904000 13.208200
	CHANNELS 6 Xposition Yposition Zposition Zrotation Yrotation Xrotation 
	JOINT LHipJoint
	{
		OFFSET 0.000000 0.000000 0.000000
		CHANNELS 3 Zrotation Yrotation Xrotation
		JOINT LeftUpLeg
		{
			OFFSET 1.800000 -1.400000 0.085000
			CHANNELS 3 Zrotation Yrotation Xrotation
			JOINT LeftLeg
			{
				OFFSET 2.215000 -6.000000 0.000000
				CHANNELS 3 Zrotation Yrotation Xrotation
				JOINT LeftFoot
				{
					OFFSET 2.500000 -6.900000 0.000000
					CHANNELS 3 Zrotation Yrotation Xrotation
					JOINT LeftToeBase
					{
						OFFSET 0.200000 -0.500000 1.950000
						CHANNELS 3 Zrotation Yrotation Xrotation
						End Site
						{
							OFFSET 0.000000 0.000000 0.000000
						}
					}
				}
			}
		}
	}
	JOINT RHipJoint
	{
		OFFSET 0.000000 0.000000 0.000000
		CHANNELS 3 Zrotation Yrotation Xrotation
		JOINT RightUpLeg
		{
			OFFSET -1.800000 -1.400000 0.085000
			CHANNELS 3 Zrotation Yrotation Xrotation
			JOINT RightLeg
			{
				OFFSET -2.215000 -6.000000 0.000000
				CHANNELS 3 Zrotation Yrotation Xrotation
				JOINT RightFoot
				{
					OFFSET -2.500000 -6.900000 0.000000
					CHANNELS 3 Zrotation Yrotation Xrotation
					JOINT RightToeBase
					{
						OFFSET -0.200000 -0.500000 1.950000
						CHANNELS 3 Zrotation Yrotation Xrotation
						End Site
						{
							OFFSET 0.000000 0.000000 0.000000
						}
					}
				}
			}
		}
	}
	JOINT LowerBack
	{
		OFFSET 0.000000 0.000000 0.000000
		CHANNELS 3 Zrotation Yrotation Xrotation
		JOINT Spine
		{
			OFFSET -0.087000 1.940000 -0.288900
			CHANNELS 3 Zrotation Yrotation Xrotation
			JOINT Spine1
			{
				OFFSET 0.000000 1.950000 0.060000
				CHANNELS 3 Zrotation Yrotation Xrotation
				JOINT Neck
				{
					OFFSET 0.000000 0.000000 0.000000
					CHANNELS 3 Zrotation Yrotation Xrotation
					JOINT Neck1
					{
						OFFSET 0.000000 1.600000 0.340000
						CHANNELS 3 Zrotation Yrotation Xrotation
						JOINT Head
						{
							OFFSET 0.000000 1.667000 -0.240000
							CHANNELS 3 Zrotation Yrotation Xrotation
							End Site
							{
								OFFSET 0.000000 0.000000 0.000000
							}
						}
					}
				}
				JOINT LeftShoulder
				{
					OFFSET 0.000000 0.000000 0.000000
					CHANNELS 3 Zrotation Yrotation Xrotation
					JOINT LeftArm
					{
						OFFSET 2.700000 1.550000 -0.730000
						CHANNELS 3 Zrotation Yrotation Xrotation
						JOINT LeftForeArm
						{
							OFFSET 5.450000 0.000000 0.000000
							CHANNELS 3 Zrotation Yrotation Xrotation
							JOINT LeftHand
							{
								OFFSET 3.450000 0.000000 0.000000
								CHANNELS 3 Zrotation Yrotation Xrotation
								JOINT LeftHandIndex1
								{
									OFFSET 0.750000 0.000000 0.000000
									CHANNELS 3 Zrotation Yrotation Xrotation
									End Site
									{
										OFFSET 0.000000 0.000000 0.000000
									}
								}
							}
						}
					}
				}
				JOINT RightShoulder
				{
					OFFSET 0.000000 0.000000 0.000000
					CHANNELS 3 Zrotation Yrotation Xrotation
					JOINT RightArm
					{
						OFFSET -2.700000 1.550000 -0.730000
						CHANNELS 3 Zrotation Yrotation Xrotation
						JOINT RightForeArm
						{
							OFFSET -5.450000 0.000000 0.000000
							CHANNELS 3 Zrotation Yrotation Xrotation
							JOINT RightHand
							{
								OFFSET -3.450000 0.000000 0.000000
								CHANNELS 3 Zrotation Yrotation Xrotation
								JOINT RightHandIndex1
								{
									OFFSET -0.750000 0.000000 0.000000
									CHANNELS 3 Zrotation Yrotation Xrotation
									End Site
									{
										OFFSET 0.000000 0.000000 0.000000
									}
								}
							}
						}
					}
				}
			}
		}
	}
}
MOTION
Frames: 7
Frame Time: 0.016667
-0.063590 15.301380 -1.371150 -0.754644 11.689468 -11.825239 -15.204123 11.980238 3.665127 27.851766 1.981923 -31.959973 4.592669 12.096311 49.662703 0.547320 9.422420 1.030023 0.493600 0.514560 0.299300 18.492544 -11.248428 1.810694 -39.903623 -0.332022 -11.162563 4.375312 -11.755227 33.905383 -0.519019 -7.121615 1.556244 0.431130 0.052470 0.133010 -4.030431 0.387492 -8.235178 12.142946 4.300252 21.296200 0.589953 5.905967 17.062234 2.616710 2.159451 -6.460157 2.464865 -6.142151 37.658156 -0.036320 -5.901900 -9.131690 -30.896154 -13.989109 3.685562 -31.200299 -26.186815 8.917752 149.821250 -35.981667 -105.260855 -3.684850 3.328386 -0.044540 0.104350 -0.003460 0.137940 25.999389 17.003115 4.284471 28.954495 31.116883 5.186084 -147.327875 41.356869 -119.416542 2.051245 -2.076814 0.043640 0.104000 -0.168460 -0.005890 
-0.059360 15.326170 -1.380730 -0.716293 10.492002 -12.173908 -15.198518 12.069633 3.574212 28.017995 1.948172 -30.784262 4.189015 12.213537 49.294479 0.530575 9.413819 1.035875 0.498410 0.527960 0.299970 18.489049 -11.238630 1.833649 -39.815336 -0.584739 -11.323122 4.362302 -11.530694 33.100654 -0.494996 -7.033333 1.588089 0.450180 0.067850 0.133120 -4.013909 0.259130 -8.188459 12.211609 3.833191 21.685214 0.372376 5.408842 17.695488 2.570569 1.675607 -6.360148 1.659612 -5.466528 37.026010 -0.671050 -5.303090 -9.330740 -29.016415 -14.675602 3.423689 -27.589182 -27.561839 8.292414 147.607537 -32.960169 -95.354302 -3.702173 3.276121 -0.058340 0.123710 -0.015070 0.140390 24.235766 17.802393 4.310309 26.262742 31.617999 4.865425 -145.935327 37.322215 -110.673531 2.016854 -2.063464 0.035890 0.117300 -0.165170 -0.006830 
-0.053380 15.378580 -1.403830 -0.844229 8.033021 -12.708459 -15.198079 12.171732 3.442924 28.615465 2.002059 -28.654403 2.913374 12.712693 48.276501 0.501013 9.422871 1.037782 0.515660 0.558430 0.304670 18.487632 -11.146753 1.918800 -39.676788 -0.935774 -11.770899 5.310694 -11.495951 31.767583 -0.464348 -6.962375 1.612854 0.490370 0.096600 0.134030 -3.972447 0.029059 -8.128456 12.313988 2.881693 22.511894 0.165811 4.327746 18.605121 2.586806 0.542643 -6.116238 -0.032529 -3.972356 35.442824 -1.688000 -4.226610 -9.732420 -25.219060 -14.778720 3.089805 -21.420384 -27.669391 5.911555 144.747252 -27.623046 -79.745788 -3.745458 3.238248 -0.083610 0.157350 -0.037290 0.149100 20.512937 18.666203 3.777831 20.497521 32.700595 3.601715 -143.225404 29.730980 -91.531399 1.939854 -2.086371 0.022470 0.141310 -0.163100 -0.007880 
-0.056970 15.429960 -1.437490 -0.785388 4.446307 -13.517025 -15.242531 12.344117 3.356069 29.731707 2.214313 -25.906785 1.298693 13.508851 47.254429 0.541170 9.526570 1.021474 0.497510 0.551500 0.284570 18.429038 -11.011088 1.993921 -39.147037 -1.163603 -12.332190 6.154007 -11.175594 30.241741 -0.407300 -6.829850 1.667200 0.496810 0.135090 0.143410 -3.781742 -0.364072 -8.111076 11.601081 2.252076 24.068315 0.075279 3.592975 19.446245 2.758552 -0.479913 -6.615196 -1.508374 -2.366030 34.014926 -3.243830 -2.481160 -8.195610 -20.841643 -15.936081 3.237264 -12.443027 -25.398014 1.055788 140.525111 -21.532845 -60.559672 -3.838553 3.253665 -0.136520 0.210410 -0.072030 0.158180 15.844448 20.752077 3.878893 11.664790 31.763003 -1.328943 -139.447426 19.857886 -63.893102 1.929158 -2.226209 0.018390 0.133510 -0.157870 -0.000530 
-0.043650 15.475080 -1.479610 -0.982389 0.587202 -14.339682 -15.332688 12.529387 3.370176 31.120793 2.245398 -23.348650 -0.505623 14.428778 46.597867 0.582772 9.761090 0.957463 0.461530 0.509550 0.274730 18.330867 -10.777768 2.061323 -38.561724 -1.211000 -13.321388 7.109675 -10.937515 29.352124 -0.352569 -6.721381 1.703795 0.486710 0.166120 0.153620 -3.480887 -0.944484 -8.164318 10.747435 1.746902 26.398009 0.183752 3.171595 19.311907 3.224399 -1.155184 -7.339708 -2.462451 -1.420455 32.521648 -4.849200 -0.946420 -6.836290 -16.843173 -17.182715 3.335913 -3.175965 -21.284421 -3.863713 135.613873 -15.924144 -43.073045 -3.959695 3.296713 -0.164020 0.258340 -0.104320 0.142170 10.877905 22.634785 4.012389 1.296849 28.525923 -8.106723 -133.943120 10.575455 -36.019809 2.044958 -2.400677 0.000080 0.128040 -0.132280 -0.012410 
-0.030060 15.498480 -1.532490 -1.345505 -3.364875 -14.622553 -15.467108 12.657999 3.568189 32.977982 1.911792 -21.655130 -2.767971 15.625650 46.333567 0.670123 10.117314 0.849503 0.408260 0.441370 0.267700 18.206207 -10.456531 2.064606 -37.439733 -1.151798 -14.920922 7.769507 -10.575177 28.913863 -0.297636 -6.529349 1.766685 0.442320 0.167450 0.161060 -3.095851 -1.646029 -8.300775 9.313855 1.449244 28.670206 0.306720 2.995079 18.157570 3.876601 -1.071620 -8.562014 -2.366007 -0.855916 32.115714 -6.018700 0.542510 -5.306610 -12.085181 -18.352556 3.529626 4.501454 -16.246327 -7.830004 128.103065 -11.260478 -28.453274 -4.050448 3.368207 -0.166100 0.278300 -0.113160 0.115010 4.727744 23.717371 4.535253 -6.333150 23.173011 -13.573683 -125.974234 0.848556 -12.802710 2.261980 -2.545727 -0.011050 0.102210 -0.109920 -0.029730 
-0.009020 15.503150 -1.592060 -1.572867 -6.899035 -14.695174 -15.601607 12.783409 3.836743 34.653417 1.255451 -20.660053 -5.092617 16.850104 46.503218 0.815180 10.493261 0.736550 0.334960 0.342330 0.260420 18.093831 -10.055529 2.069728 -36.662423 -1.031505 -16.771969 8.413031 -10.407943 29.092474 -0.268685 -6.366555 1.824494 0.347210 0.131350 0.158670 -2.738698 -2.538665 -8.501987 8.007712 0.883997 31.774417 0.126508 2.827789 15.389509 4.076554 -1.111909 -9.617913 -2.904722 -0.305033 32.773695 -6.584780 1.782140 -3.879560 -7.625957 -18.519081 3.412382 13.087152 -10.998932 -10.386705 116.515780 -7.158663 -15.679871 -4.135061 3.404516 -0.139820 0.253420 -0.093160 0.078150 -0.425017 23.607687 5.284341 -13.526666 15.627824 -16.660687 -114.472030 -7.358670 1.905636 2.537481 -2.544592 -0.005040 0.055070 -0.094800 -0.045440 
